<?xml version="1.0" encoding="UTF-8" standalone="no"?>
<!-- Created with Inkscape (http://www.inkscape.org/) -->

<svg
   version="1.1"
   id="svg2"
   xml:space="preserve"
   width="50"
   height="50"
   viewBox="0 0 50 50"
   sodipodi:docname="TXKEY-SUPERTUX.svg"
   inkscape:version="1.3 (0e150ed6c4, 2023-07-21)"
   xmlns:inkscape="http://www.inkscape.org/namespaces/inkscape"
   xmlns:sodipodi="http://sodipodi.sourceforge.net/DTD/sodipodi-0.dtd"
   xmlns="http://www.w3.org/2000/svg"
   xmlns:svg="http://www.w3.org/2000/svg"
   xmlns:rdf="http://www.w3.org/1999/02/22-rdf-syntax-ns#"
   xmlns:cc="http://creativecommons.org/ns#"
   xmlns:dc="http://purl.org/dc/elements/1.1/"><metadata
     id="metadata8"><rdf:RDF><cc:Work
         rdf:about=""><dc:format>image/svg+xml</dc:format><dc:type
           rdf:resource="http://purl.org/dc/dcmitype/StillImage" /></cc:Work></rdf:RDF></metadata><defs
     id="defs6"><clipPath
       clipPathUnits="userSpaceOnUse"
       id="clipPath20"><path
         d="M 0,396.784 H 1048.812 V 0 H 0 Z"
         id="path18"
         inkscape:connector-curvature="0" /></clipPath><clipPath
       clipPathUnits="userSpaceOnUse"
       id="clipPath32"><path
         d="M 0,396.784 H 1048.812 V 0 H 0 Z"
         id="path30"
         inkscape:connector-curvature="0" /></clipPath><clipPath
       clipPathUnits="userSpaceOnUse"
       id="clipPath44"><path
         d="M 0,396.784 H 1048.812 V 0 H 0 Z"
         id="path42"
         inkscape:connector-curvature="0" /></clipPath><clipPath
       clipPathUnits="userSpaceOnUse"
       id="clipPath144"><path
         d="M 0,396.784 H 1048.812 V 0 H 0 Z"
         id="path142"
         inkscape:connector-curvature="0" /></clipPath><clipPath
       clipPathUnits="userSpaceOnUse"
       id="clipPath11642"><path
         d="M 0,396.784 H 1048.812 V 0 H 0 Z"
         id="path11640"
         inkscape:connector-curvature="0" /></clipPath><clipPath
       clipPathUnits="userSpaceOnUse"
       id="clipPath11704"><path
         d="M 0,396.784 H 1048.812 V 0 H 0 Z"
         id="path11702"
         inkscape:connector-curvature="0" /></clipPath><clipPath
       clipPathUnits="userSpaceOnUse"
       id="clipPath11760"><path
         d="M 0,396.784 H 1048.812 V 0 H 0 Z"
         id="path11758"
         inkscape:connector-curvature="0" /></clipPath><clipPath
       clipPathUnits="userSpaceOnUse"
       id="clipPath11792"><path
         d="M 0,396.784 H 1048.812 V 0 H 0 Z"
         id="path11790"
         inkscape:connector-curvature="0" /></clipPath><clipPath
       clipPathUnits="userSpaceOnUse"
       id="clipPath12004"><path
         d="M 0,396.784 H 1048.812 V 0 H 0 Z"
         id="path12002"
         inkscape:connector-curvature="0" /></clipPath><clipPath
       clipPathUnits="userSpaceOnUse"
       id="clipPath12102"><path
         d="M 0,396.784 H 1048.812 V 0 H 0 Z"
         id="path12100"
         inkscape:connector-curvature="0" /></clipPath><clipPath
       clipPathUnits="userSpaceOnUse"
       id="clipPath12110"><path
         d="M 65.8949,341.554 H 982.935 V 55.2325 H 65.8949 Z"
         id="path12108"
         inkscape:connector-curvature="0" /></clipPath></defs><sodipodi:namedview
     pagecolor="#ffffff"
     bordercolor="#666666"
     borderopacity="1"
     objecttolerance="10"
     gridtolerance="10"
     guidetolerance="10"
     inkscape:pageopacity="0"
     inkscape:pageshadow="2"
     inkscape:window-width="2560"
     inkscape:window-height="1371"
     id="namedview4"
     showgrid="false"
     inkscape:zoom="16"
     inkscape:cx="23.71875"
     inkscape:cy="19.90625"
     inkscape:window-x="0"
     inkscape:window-y="0"
     inkscape:window-maximized="1"
     inkscape:current-layer="g10"
     inkscape:pagecheckerboard="0"
     inkscape:snap-global="true"
     showguides="true"
     inkscape:guide-bbox="true"
     inkscape:showpageshadow="2"
     inkscape:deskcolor="#d1d1d1"><sodipodi:guide
       position="-11.142419,25"
       orientation="0,1"
       id="guide1"
       inkscape:locked="false"
       inkscape:label=""
       inkscape:color="rgb(0,134,229)" /><sodipodi:guide
       position="25,23.603154"
       orientation="-1,0"
       id="guide2"
       inkscape:locked="false"
       inkscape:label=""
       inkscape:color="rgb(0,134,229)" /><sodipodi:guide
       position="10,24.636719"
       orientation="-1,0"
       id="guide3"
       inkscape:locked="false"
       inkscape:label=""
       inkscape:color="rgb(0,134,229)" /><sodipodi:guide
       position="40,26.634781"
       orientation="-1,0"
       id="guide4"
       inkscape:locked="false"
       inkscape:label=""
       inkscape:color="rgb(0,134,229)" /></sodipodi:namedview><g
     inkscape:groupmode="layer"
     id="layer1"
     inkscape:label="Keys"
     style="display:inline;opacity:1"
     transform="translate(-571.89993,-124.65814)">&#10;&#10;&#10;&#10;&#10;&#10;&#10;&#10;&#10;&#10;&#10;&#10;&#10;&#10;&#10;&#10;&#10;&#10;&#10;&#10;&#10;&#10;&#10;&#10;&#10;&#10;&#10;&#10;&#10;&#10;&#10;&#10;&#10;&#10;&#10;&#10;&#10;&#10;&#10;&#10;&#10;&#10;&#10;&#10;&#10;&#10;&#10;&#10;&#10;&#10;&#10;&#10;&#10;&#10;&#10;&#10;&#10;&#10;&#10;&#10;&#10;&#10;&#10;&#10;&#10;&#10;&#10;&#10;&#10;&#10;&#10;&#10;&#10;&#10;&#10;&#10;&#10;&#10;&#10;&#10;&#10;&#10;&#10;&#10;&#10;&#10;&#10;&#10;&#10;&#10;&#10;&#10;&#10;&#10;&#10;&#10;&#10;&#10;&#10;&#10;&#10;&#10;&#10;&#10;&#10;&#10;&#10;&#10;&#10;&#10;&#10;&#10;&#10;&#10;&#10;&#10;&#10;&#10;&#10;&#10;&#10;&#10;&#10;&#10;&#10;&#10;&#10;&#10;&#10;&#10;&#10;&#10;&#10;&#10;&#10;&#10;&#10;&#10;&#10;&#10;&#10;&#10;&#10;&#10;&#10;&#10;&#10;&#10;&#10;&#10;&#10;&#10;&#10;&#10;&#10;&#10;&#10;&#10;&#10;&#10;&#10;&#10;&#10;&#10;&#10;&#10;&#10;&#10;&#10;&#10;&#10;&#10;&#10;&#10;&#10;&#10;&#10;&#10;&#10;&#10;&#10;&#10;&#10;&#10;&#10;&#10;&#10;&#10;&#10;&#10;&#10;&#10;&#10;&#10;&#10;&#10;&#10;&#10;&#10;&#10;&#10;&#10;&#10;&#10;&#10;&#10;&#10;&#10;&#10;&#10;&#10;&#10;&#10;&#10;&#10;<g
   id="g4056"
   transform="matrix(1.3333334,0,0,1.3333334,109.63986,119.96495)"
   style="fill:#800000;fill-opacity:1"><path
     inkscape:connector-curvature="0"
     id="path4054"
     d=""
     style="fill:#800000;stroke:none" /></g></g><g
     id="g10"
     inkscape:groupmode="layer"
     inkscape:label="Grid"
     transform="matrix(1.3333333,0,0,-1.3333333,-571.89993,404.3872)"
     style="display:inline"><g
       id="g14"><g
         id="g16"
         clip-path="url(#clipPath20)"><g
           id="g22"
           transform="translate(460.7484,322.6421)" /></g></g><g
       id="g24"
       transform="translate(460.7484,322.6421)" /><g
       id="g26"><g
         id="g28"
         clip-path="url(#clipPath32)"><g
           id="g34"
           transform="translate(511.845,322.6436)" /></g></g><g
       id="g36"
       transform="translate(511.845,322.6436)" /><g
       id="g38"><g
         id="g40"
         clip-path="url(#clipPath44)"><g
           id="g46"
           transform="translate(751.1232,96.0183)" /></g></g><g
       id="g48"
       transform="translate(751.1232,96.0183)" /><rect
       style="opacity:1;vector-effect:none;fill:none;fill-opacity:1;stroke:#0e0e0e;stroke-width:0.75;stroke-linecap:round;stroke-linejoin:round;stroke-miterlimit:4;stroke-dasharray:none;stroke-dashoffset:7.5;stroke-opacity:1;paint-order:markers stroke fill"
       id="rect858"
       width="36.75"
       height="36.75"
       x="429.29996"
       y="-302.91541"
       transform="scale(1,-1)"
       rx="3.6539953"
       ry="3.6539953" /><path
       d="m 446.09185,290.236 c -0.92325,0 -1.66935,-0.99637 -1.66935,-2.22613 0,-0.82764 0.33275,-1.54937 0.83421,-1.93367 -1.70966,-0.82389 -1.86712,-2.69852 -1.86712,-4.88059 0,-0.50895 -0.0441,-0.98511 0.21276,-1.47157 0.0141,-0.0225 0.0291,-0.0441 0.0469,-0.0693 0.4471,0.21183 1.03667,0.3365 1.68435,0.3365 1.06572,0 1.97772,-0.34025 2.33954,-0.8239 0.36648,0.48365 1.27473,0.8239 2.33953,0.8239 0.65237,0 1.24193,-0.12842 1.68809,-0.3365 0.0188,0.0253 0.0328,0.0468 0.0441,0.0693 0.25963,0.48646 0.21933,0.96262 0.21933,1.47157 0,2.29924 -0.17903,4.25821 -2.16332,5.00525 0.65518,0.21559 1.12759,0.83515 1.12759,1.55969 0,0.90826 -0.7358,1.6478 -1.64405,1.6478 -0.70673,0 -1.31037,-0.4471 -1.54094,-1.07698 -0.11716,1.07698 -0.8136,1.90463 -1.65156,1.90463 z m 0.82765,-2.0649 c 0.35805,0 0.65144,-0.31494 0.65144,-0.70299 0,-0.38524 -0.29339,-0.69924 -0.65144,-0.69924 -0.36274,0 -0.65611,0.314 -0.65611,0.69924 0,0.38805 0.29337,0.70299 0.65611,0.70299 z m 1.29912,-0.19779 c 0.25307,0 0.4546,-0.21651 0.4546,-0.48365 0,-0.26337 -0.20153,-0.48365 -0.4546,-0.48365 -0.24839,0 -0.45366,0.22028 -0.45366,0.48365 0,0.26714 0.20527,0.48365 0.45366,0.48365 z m -0.53052,-0.6083 c 0.0581,-0.22684 0.16122,-0.43585 0.29994,-0.61113 v -0.004 l 0.8717,0.0403 -1.12009,-1.94774 -1.28225,1.84182 1.00012,0.0441 c 0.10217,0.194 0.17903,0.40583 0.23058,0.63641 z m -0.015,6.54993 c -5.17678,0 -9.37314,-4.19542 -9.37314,-9.37312 0,-5.17677 4.19636,-9.37595 9.37314,-9.37595 5.18145,0 9.37686,4.19918 9.37686,9.37595 0,5.1777 -4.19541,9.37312 -9.37686,9.37312 z m 0,-2.24393 c 3.21497,0 5.26581,-2.67696 5.56575,-6.13284 l 1.81933,-1.3141 -1.87088,-0.97011 c -0.18277,-1.41349 -0.65143,-2.67323 -1.39471,-3.64335 0.4499,-0.23431 0.73203,-0.553 0.73203,-0.90825 0,-0.71048 -1.12384,-1.2888 -2.51199,-1.2888 -1.0648,0 -1.97305,0.34025 -2.33953,0.8239 -0.36181,-0.48365 -1.27381,-0.8239 -2.33954,-0.8239 -1.38347,0 -2.50824,0.57832 -2.50824,1.2888 0,0.35525 0.28212,0.67767 0.73297,0.90825 -0.74329,0.97012 -1.21195,2.22986 -1.39847,3.64335 l -1.86806,0.97011 1.82025,1.3141 c 0.29995,3.45588 2.35078,6.13284 5.56109,6.13284 z"
       style="display:inline;fill:#000000;fill-opacity:1;fill-rule:evenodd;stroke:none;stroke-width:0.937308;enable-background:new"
       id="path11514"
       inkscape:connector-curvature="0" /></g></svg>
