<?xml version="1.0" encoding="UTF-8" standalone="no"?>
<!-- Created with Inkscape (http://www.inkscape.org/) -->

<svg
   version="1.1"
   id="svg2"
   xml:space="preserve"
   width="50"
   height="50"
   viewBox="0 0 50 50"
   sodipodi:docname="TXKEY-FNLOCK.svg"
   inkscape:version="1.3 (0e150ed6c4, 2023-07-21)"
   xmlns:inkscape="http://www.inkscape.org/namespaces/inkscape"
   xmlns:sodipodi="http://sodipodi.sourceforge.net/DTD/sodipodi-0.dtd"
   xmlns="http://www.w3.org/2000/svg"
   xmlns:svg="http://www.w3.org/2000/svg"
   xmlns:rdf="http://www.w3.org/1999/02/22-rdf-syntax-ns#"
   xmlns:cc="http://creativecommons.org/ns#"
   xmlns:dc="http://purl.org/dc/elements/1.1/"><metadata
     id="metadata8"><rdf:RDF><cc:Work
         rdf:about=""><dc:format>image/svg+xml</dc:format><dc:type
           rdf:resource="http://purl.org/dc/dcmitype/StillImage" /></cc:Work></rdf:RDF></metadata><defs
     id="defs6"><clipPath
       clipPathUnits="userSpaceOnUse"
       id="clipPath20"><path
         d="M 0,396.784 H 1048.812 V 0 H 0 Z"
         id="path18"
         inkscape:connector-curvature="0" /></clipPath><clipPath
       clipPathUnits="userSpaceOnUse"
       id="clipPath32"><path
         d="M 0,396.784 H 1048.812 V 0 H 0 Z"
         id="path30"
         inkscape:connector-curvature="0" /></clipPath><clipPath
       clipPathUnits="userSpaceOnUse"
       id="clipPath44"><path
         d="M 0,396.784 H 1048.812 V 0 H 0 Z"
         id="path42"
         inkscape:connector-curvature="0" /></clipPath><clipPath
       clipPathUnits="userSpaceOnUse"
       id="clipPath144"><path
         d="M 0,396.784 H 1048.812 V 0 H 0 Z"
         id="path142"
         inkscape:connector-curvature="0" /></clipPath><clipPath
       clipPathUnits="userSpaceOnUse"
       id="clipPath11642"><path
         d="M 0,396.784 H 1048.812 V 0 H 0 Z"
         id="path11640"
         inkscape:connector-curvature="0" /></clipPath><clipPath
       clipPathUnits="userSpaceOnUse"
       id="clipPath11704"><path
         d="M 0,396.784 H 1048.812 V 0 H 0 Z"
         id="path11702"
         inkscape:connector-curvature="0" /></clipPath><clipPath
       clipPathUnits="userSpaceOnUse"
       id="clipPath11760"><path
         d="M 0,396.784 H 1048.812 V 0 H 0 Z"
         id="path11758"
         inkscape:connector-curvature="0" /></clipPath><clipPath
       clipPathUnits="userSpaceOnUse"
       id="clipPath11792"><path
         d="M 0,396.784 H 1048.812 V 0 H 0 Z"
         id="path11790"
         inkscape:connector-curvature="0" /></clipPath><clipPath
       clipPathUnits="userSpaceOnUse"
       id="clipPath12004"><path
         d="M 0,396.784 H 1048.812 V 0 H 0 Z"
         id="path12002"
         inkscape:connector-curvature="0" /></clipPath><clipPath
       clipPathUnits="userSpaceOnUse"
       id="clipPath12102"><path
         d="M 0,396.784 H 1048.812 V 0 H 0 Z"
         id="path12100"
         inkscape:connector-curvature="0" /></clipPath><clipPath
       clipPathUnits="userSpaceOnUse"
       id="clipPath12110"><path
         d="M 65.8949,341.554 H 982.935 V 55.2325 H 65.8949 Z"
         id="path12108"
         inkscape:connector-curvature="0" /></clipPath><clipPath
       id="XMLID_12_">&#10;		<rect
   y="0"
   x="0"
   height="382.677"
   width="1077.165"
   id="use815" />&#10;	</clipPath><clipPath
       id="XMLID_12_-3">&#10;		<rect
   y="0"
   x="0"
   height="382.677"
   width="1077.165"
   id="use815-6" />&#10;	</clipPath><clipPath
       id="XMLID_12_-5">&#10;		<rect
   y="0"
   x="0"
   height="382.677"
   width="1077.165"
   id="use815-62" />&#10;	</clipPath><clipPath
       id="XMLID_12_-9">&#10;		<rect
   y="0"
   x="0"
   height="382.677"
   width="1077.165"
   id="use815-1" />&#10;	</clipPath><clipPath
       id="clipPath1">&#10;		<rect
   y="0"
   x="0"
   height="382.677"
   width="1077.165"
   id="use1" />&#10;	</clipPath><clipPath
       id="clipPath2">&#10;		<rect
   y="0"
   x="0"
   height="382.677"
   width="1077.165"
   id="use2" />&#10;	</clipPath></defs><sodipodi:namedview
     pagecolor="#ffffff"
     bordercolor="#666666"
     borderopacity="1"
     objecttolerance="10"
     gridtolerance="10"
     guidetolerance="10"
     inkscape:pageopacity="0"
     inkscape:pageshadow="2"
     inkscape:window-width="2560"
     inkscape:window-height="1371"
     id="namedview4"
     showgrid="false"
     inkscape:zoom="16"
     inkscape:cx="19.59375"
     inkscape:cy="25.40625"
     inkscape:window-x="0"
     inkscape:window-y="0"
     inkscape:window-maximized="1"
     inkscape:current-layer="g10"
     inkscape:pagecheckerboard="0"
     inkscape:snap-global="true"
     showguides="true"
     inkscape:guide-bbox="true"
     inkscape:showpageshadow="2"
     inkscape:deskcolor="#d1d1d1"><sodipodi:guide
       position="-11.142419,25"
       orientation="0,1"
       id="guide1"
       inkscape:locked="false"
       inkscape:label=""
       inkscape:color="rgb(0,134,229)" /><sodipodi:guide
       position="25,23.603154"
       orientation="-1,0"
       id="guide2"
       inkscape:locked="false"
       inkscape:label=""
       inkscape:color="rgb(0,134,229)" /><sodipodi:guide
       position="10,24.636719"
       orientation="-1,0"
       id="guide3"
       inkscape:locked="false"
       inkscape:label=""
       inkscape:color="rgb(0,134,229)" /><sodipodi:guide
       position="40,26.634781"
       orientation="-1,0"
       id="guide4"
       inkscape:locked="false"
       inkscape:label=""
       inkscape:color="rgb(0,134,229)" /><sodipodi:guide
       position="32.8125,40.0625"
       orientation="0,-1"
       id="guide5"
       inkscape:locked="false" /></sodipodi:namedview><g
     inkscape:groupmode="layer"
     id="layer1"
     inkscape:label="Keys"
     style="display:inline;opacity:1"
     transform="translate(-571.89993,-124.65814)">&#10;&#10;&#10;&#10;&#10;&#10;&#10;&#10;&#10;&#10;&#10;&#10;&#10;&#10;&#10;&#10;&#10;&#10;&#10;&#10;&#10;&#10;&#10;&#10;&#10;&#10;&#10;&#10;&#10;&#10;&#10;&#10;&#10;&#10;&#10;&#10;&#10;&#10;&#10;&#10;&#10;&#10;&#10;&#10;&#10;&#10;&#10;&#10;&#10;&#10;&#10;&#10;&#10;&#10;&#10;&#10;&#10;&#10;&#10;&#10;&#10;&#10;&#10;&#10;&#10;&#10;&#10;&#10;&#10;&#10;&#10;&#10;&#10;&#10;&#10;&#10;&#10;&#10;&#10;&#10;&#10;&#10;&#10;&#10;&#10;&#10;&#10;&#10;&#10;&#10;&#10;&#10;&#10;&#10;&#10;&#10;&#10;&#10;&#10;&#10;&#10;&#10;&#10;&#10;&#10;&#10;&#10;&#10;&#10;&#10;&#10;&#10;&#10;&#10;&#10;&#10;&#10;&#10;&#10;&#10;&#10;&#10;&#10;&#10;&#10;&#10;&#10;&#10;&#10;&#10;&#10;&#10;&#10;&#10;&#10;&#10;&#10;&#10;&#10;&#10;&#10;&#10;&#10;&#10;&#10;&#10;&#10;&#10;&#10;&#10;&#10;&#10;&#10;&#10;&#10;&#10;&#10;&#10;&#10;&#10;&#10;&#10;&#10;&#10;&#10;&#10;&#10;&#10;&#10;&#10;&#10;&#10;&#10;&#10;&#10;&#10;&#10;&#10;&#10;&#10;&#10;&#10;&#10;&#10;&#10;&#10;&#10;&#10;&#10;&#10;&#10;&#10;&#10;&#10;&#10;&#10;&#10;&#10;&#10;&#10;&#10;&#10;&#10;&#10;&#10;&#10;&#10;&#10;&#10;&#10;&#10;&#10;&#10;&#10;&#10;<g
   id="g4056"
   transform="matrix(1.3333334,0,0,1.3333334,109.63986,119.96495)"
   style="fill:#800000;fill-opacity:1"><path
     inkscape:connector-curvature="0"
     id="path4054"
     d=""
     style="fill:#800000;stroke:none" /></g></g><g
     id="g10"
     inkscape:groupmode="layer"
     inkscape:label="Grid"
     transform="matrix(1.3333333,0,0,-1.3333333,-571.89993,404.3872)"
     style="display:inline"><g
       id="g14"><g
         id="g16"
         clip-path="url(#clipPath20)"><g
           id="g22"
           transform="translate(460.7484,322.6421)" /></g></g><g
       id="g24"
       transform="translate(460.7484,322.6421)" /><g
       id="g26"><g
         id="g28"
         clip-path="url(#clipPath32)"><g
           id="g34"
           transform="translate(511.845,322.6436)" /></g></g><g
       id="g36"
       transform="translate(511.845,322.6436)" /><g
       id="g38"><g
         id="g40"
         clip-path="url(#clipPath44)"><g
           id="g46"
           transform="translate(751.1232,96.0183)" /></g></g><g
       id="g48"
       transform="translate(751.1232,96.0183)" /><rect
       style="opacity:1;vector-effect:none;fill:none;fill-opacity:1;stroke:#0e0e0e;stroke-width:0.75;stroke-linecap:round;stroke-linejoin:round;stroke-miterlimit:4;stroke-dasharray:none;stroke-dashoffset:7.5;stroke-opacity:1;paint-order:markers stroke fill"
       id="rect858"
       width="36.75"
       height="36.75"
       x="429.29996"
       y="-302.91541"
       transform="scale(1,-1)"
       rx="3.6539953"
       ry="3.6539953" /><g
       id="g3"
       transform="translate(-0.77863275,-0.50725496)"><g
         id="g2"
         transform="matrix(1.3158926,0,0,1.3158926,-126.6453,-83.867216)"><g
           style="display:inline;fill:#000000;fill-opacity:1"
           id="g4048"
           transform="matrix(1.1087273,0,0,-1.1087273,350.24152,364.82278)"><g
             style="fill:#000000;fill-opacity:1"
             transform="translate(73.724602,74.979797)"
             id="g4046"><path
               style="fill:#000000;fill-opacity:1;stroke:none"
               d="M 1.109375,0 H 0.75 C 0.664062,0 0.625,-0.0351562 0.625,-0.109375 V -5.03125 c 0,-0.070312 0.039062,-0.109375 0.125,-0.109375 h 2.484375 c 0.070313,0 0.109375,0.039063 0.109375,0.109375 V -4.75 c 0,0.085938 -0.039062,0.125 -0.109375,0.125 h -1.9375 c -0.054687,0 -0.078125,0.023438 -0.078125,0.0625 v 1.75 c 0,0.042969 0.023438,0.0625 0.078125,0.0625 h 1.71875 c 0.070313,0 0.109375,0.042969 0.109375,0.125 v 0.28125 c 0,0.074219 -0.039062,0.109375 -0.109375,0.109375 h -1.71875 c -0.054687,0 -0.078125,0.027344 -0.078125,0.078125 v 2.046875 C 1.21875,-0.0351562 1.179688,0 1.109375,0 Z m 0,0"
               id="path4044"
               inkscape:connector-curvature="0" /></g></g><g
           id="g4052"
           transform="matrix(1.1087273,0,0,-1.1087273,436.29362,281.69063)"
           style="display:inline;fill:#000000;fill-opacity:1"><path
             inkscape:connector-curvature="0"
             id="path4050"
             d="M 1.09375,0 H 0.75 C 0.664062,0 0.625,-0.0351562 0.625,-0.109375 V -5.03125 c 0,-0.070312 0.039062,-0.109375 0.125,-0.109375 h 0.328125 c 0.0625,0 0.101563,0.023437 0.125,0.0625 l 2.203125,3.875 H 3.4375 V -5.03125 c 0,-0.070312 0.035156,-0.109375 0.109375,-0.109375 H 3.90625 c 0.070312,0 0.109375,0.039063 0.109375,0.109375 v 4.921875 C 4.015625,-0.0351562 3.976562,0 3.90625,0 H 3.609375 C 3.546875,0 3.488281,-0.0351562 3.4375,-0.109375 L 1.234375,-3.9375 h -0.03125 v 3.828125 C 1.203125,-0.0351562 1.164062,0 1.09375,0 Z m 0,0"
             style="fill:#000000;fill-opacity:1;stroke:none" /></g></g><g
         id="g1"
         transform="matrix(1.3158926,0,0,1.3158926,-148.34833,-94.886691)"><g
           id="g4060"
           transform="matrix(1.1087273,0,0,-1.1087273,443.69992,281.69063)"
           style="display:inline;fill:#000000;fill-opacity:1"><path
             inkscape:connector-curvature="0"
             id="path4058"
             d="M 3.3125,0 H 0.75 C 0.664062,0 0.625,-0.0351562 0.625,-0.109375 V -5.03125 c 0,-0.070312 0.039062,-0.109375 0.125,-0.109375 h 0.359375 c 0.070313,0 0.109375,0.039063 0.109375,0.109375 v 4.4375 c 0,0.042969 0.023438,0.0625 0.078125,0.0625 H 3.3125 c 0.070312,0 0.109375,0.042969 0.109375,0.125 v 0.296875 C 3.421875,-0.0351562 3.382812,0 3.3125,0 Z m 0,0"
             style="fill:#000000;fill-opacity:1;stroke:none" /></g><g
           style="display:inline;fill:#000000;fill-opacity:1"
           id="g4068"
           transform="matrix(1.1087273,0,0,-1.1087273,350.24152,364.82278)"><g
             style="fill:#000000;fill-opacity:1"
             transform="translate(88.182198,74.979797)"
             id="g4066"><path
               style="fill:#000000;fill-opacity:1;stroke:none"
               d="m 1.796875,-0.515625 h 0.8125 c 0.445313,0 0.671875,-0.226563 0.671875,-0.6875 V -3.9375 c 0,-0.457031 -0.226562,-0.6875 -0.671875,-0.6875 h -0.8125 c -0.4375,0 -0.65625,0.230469 -0.65625,0.6875 v 2.734375 c 0,0.460937 0.21875,0.6875 0.65625,0.6875 z M 2.6875,0 H 1.734375 c -0.367187,0 -0.65625,-0.101562 -0.875,-0.3125 -0.210937,-0.207031 -0.3125,-0.5 -0.3125,-0.875 v -2.765625 c 0,-0.375 0.101563,-0.664063 0.3125,-0.875 0.21875,-0.207031 0.507813,-0.3125 0.875,-0.3125 H 2.6875 c 0.363281,0 0.648438,0.105469 0.859375,0.3125 0.21875,0.210937 0.328125,0.5 0.328125,0.875 V -1.1875 c 0,0.375 -0.109375,0.667969 -0.328125,0.875 C 3.335938,-0.101562 3.050781,0 2.6875,0 Z m 0,0"
               id="path4064"
               inkscape:connector-curvature="0" /></g></g><g
           style="display:inline;fill:#000000;fill-opacity:1"
           id="g4074"
           transform="matrix(1.1087273,0,0,-1.1087273,350.24152,364.82278)"><g
             style="fill:#000000;fill-opacity:1"
             transform="translate(92.767799,74.979797)"
             id="g4072"><path
               style="fill:#000000;fill-opacity:1;stroke:none"
               d="m 2.703125,0 h -0.96875 c -0.367187,0 -0.65625,-0.101562 -0.875,-0.3125 -0.210937,-0.207031 -0.3125,-0.5 -0.3125,-0.875 v -2.765625 c 0,-0.375 0.101563,-0.664063 0.3125,-0.875 0.21875,-0.207031 0.507813,-0.3125 0.875,-0.3125 h 0.96875 c 0.363281,0 0.648437,0.105469 0.859375,0.3125 0.207031,0.210937 0.3125,0.5 0.3125,0.875 V -3.5625 c 0,0.074219 -0.039062,0.109375 -0.109375,0.109375 H 3.40625 c -0.074219,0 -0.109375,-0.035156 -0.109375,-0.109375 v -0.375 C 3.296875,-4.394531 3.070312,-4.625 2.625,-4.625 H 1.796875 c -0.4375,0 -0.65625,0.230469 -0.65625,0.6875 v 2.734375 c 0,0.460937 0.21875,0.6875 0.65625,0.6875 H 2.625 c 0.445312,0 0.671875,-0.226563 0.671875,-0.6875 v -0.375 c 0,-0.070313 0.035156,-0.109375 0.109375,-0.109375 h 0.359375 c 0.070313,0 0.109375,0.039062 0.109375,0.109375 V -1.1875 c 0,0.375 -0.105469,0.667969 -0.3125,0.875 C 3.351562,-0.101562 3.066406,0 2.703125,0 Z m 0,0"
               id="path4070"
               inkscape:connector-curvature="0" /></g></g><g
           style="display:inline;fill:#000000;fill-opacity:1"
           id="g4080"
           transform="matrix(1.1087273,0,0,-1.1087273,350.24152,364.82278)"><g
             style="fill:#000000;fill-opacity:1"
             transform="translate(97.263802,74.979797)"
             id="g4078"><path
               style="fill:#000000;fill-opacity:1;stroke:none"
               d="M 1.109375,0 H 0.75 C 0.664062,0 0.625,-0.0351562 0.625,-0.109375 V -5.03125 c 0,-0.070312 0.039062,-0.109375 0.125,-0.109375 h 0.359375 c 0.070313,0 0.109375,0.039063 0.109375,0.109375 v 2.765625 h 0.015625 c 0.039063,-0.113281 0.101563,-0.222656 0.1875,-0.328125 l 1.78125,-2.4375 c 0.050781,-0.070312 0.125,-0.109375 0.21875,-0.109375 H 3.84375 c 0.09375,0 0.109375,0.039063 0.046875,0.109375 l -1.59375,2.15625 1.8125,2.75 C 4.171875,-0.0390625 4.148438,0 4.046875,0 H 3.71875 C 3.601562,0 3.523438,-0.0351562 3.484375,-0.109375 l -1.546875,-2.34375 -0.71875,0.875 v 1.46875 C 1.21875,-0.0351562 1.179688,0 1.109375,0 Z m 0,0"
               id="path4076"
               inkscape:connector-curvature="0" /></g></g></g></g></g></svg>
