<?xml version="1.0" encoding="UTF-8" standalone="no"?>
<!-- Created with Inkscape (http://www.inkscape.org/) -->

<svg
   version="1.1"
   id="svg2"
   xml:space="preserve"
   width="50"
   height="50"
   viewBox="0 0 50 50"
   sodipodi:docname="TXKEY-GAMING.svg"
   inkscape:version="1.3 (0e150ed6c4, 2023-07-21)"
   xmlns:inkscape="http://www.inkscape.org/namespaces/inkscape"
   xmlns:sodipodi="http://sodipodi.sourceforge.net/DTD/sodipodi-0.dtd"
   xmlns="http://www.w3.org/2000/svg"
   xmlns:svg="http://www.w3.org/2000/svg"
   xmlns:rdf="http://www.w3.org/1999/02/22-rdf-syntax-ns#"
   xmlns:cc="http://creativecommons.org/ns#"
   xmlns:dc="http://purl.org/dc/elements/1.1/"><metadata
     id="metadata8"><rdf:RDF><cc:Work
         rdf:about=""><dc:format>image/svg+xml</dc:format><dc:type
           rdf:resource="http://purl.org/dc/dcmitype/StillImage" /></cc:Work></rdf:RDF></metadata><defs
     id="defs6"><clipPath
       clipPathUnits="userSpaceOnUse"
       id="clipPath20"><path
         d="M 0,396.784 H 1048.812 V 0 H 0 Z"
         id="path18"
         inkscape:connector-curvature="0" /></clipPath><clipPath
       clipPathUnits="userSpaceOnUse"
       id="clipPath32"><path
         d="M 0,396.784 H 1048.812 V 0 H 0 Z"
         id="path30"
         inkscape:connector-curvature="0" /></clipPath><clipPath
       clipPathUnits="userSpaceOnUse"
       id="clipPath44"><path
         d="M 0,396.784 H 1048.812 V 0 H 0 Z"
         id="path42"
         inkscape:connector-curvature="0" /></clipPath><clipPath
       clipPathUnits="userSpaceOnUse"
       id="clipPath144"><path
         d="M 0,396.784 H 1048.812 V 0 H 0 Z"
         id="path142"
         inkscape:connector-curvature="0" /></clipPath><clipPath
       clipPathUnits="userSpaceOnUse"
       id="clipPath11642"><path
         d="M 0,396.784 H 1048.812 V 0 H 0 Z"
         id="path11640"
         inkscape:connector-curvature="0" /></clipPath><clipPath
       clipPathUnits="userSpaceOnUse"
       id="clipPath11704"><path
         d="M 0,396.784 H 1048.812 V 0 H 0 Z"
         id="path11702"
         inkscape:connector-curvature="0" /></clipPath><clipPath
       clipPathUnits="userSpaceOnUse"
       id="clipPath11760"><path
         d="M 0,396.784 H 1048.812 V 0 H 0 Z"
         id="path11758"
         inkscape:connector-curvature="0" /></clipPath><clipPath
       clipPathUnits="userSpaceOnUse"
       id="clipPath11792"><path
         d="M 0,396.784 H 1048.812 V 0 H 0 Z"
         id="path11790"
         inkscape:connector-curvature="0" /></clipPath><clipPath
       clipPathUnits="userSpaceOnUse"
       id="clipPath12004"><path
         d="M 0,396.784 H 1048.812 V 0 H 0 Z"
         id="path12002"
         inkscape:connector-curvature="0" /></clipPath><clipPath
       clipPathUnits="userSpaceOnUse"
       id="clipPath12102"><path
         d="M 0,396.784 H 1048.812 V 0 H 0 Z"
         id="path12100"
         inkscape:connector-curvature="0" /></clipPath><clipPath
       clipPathUnits="userSpaceOnUse"
       id="clipPath12110"><path
         d="M 65.8949,341.554 H 982.935 V 55.2325 H 65.8949 Z"
         id="path12108"
         inkscape:connector-curvature="0" /></clipPath></defs><sodipodi:namedview
     pagecolor="#ffffff"
     bordercolor="#666666"
     borderopacity="1"
     objecttolerance="10"
     gridtolerance="10"
     guidetolerance="10"
     inkscape:pageopacity="0"
     inkscape:pageshadow="2"
     inkscape:window-width="2560"
     inkscape:window-height="1371"
     id="namedview4"
     showgrid="false"
     inkscape:zoom="16"
     inkscape:cx="23.71875"
     inkscape:cy="19.90625"
     inkscape:window-x="0"
     inkscape:window-y="0"
     inkscape:window-maximized="1"
     inkscape:current-layer="g10"
     inkscape:pagecheckerboard="0"
     inkscape:snap-global="true"
     showguides="true"
     inkscape:guide-bbox="true"
     inkscape:showpageshadow="2"
     inkscape:deskcolor="#d1d1d1"><sodipodi:guide
       position="-11.142419,25"
       orientation="0,1"
       id="guide1"
       inkscape:locked="false"
       inkscape:label=""
       inkscape:color="rgb(0,134,229)" /><sodipodi:guide
       position="25,23.603154"
       orientation="-1,0"
       id="guide2"
       inkscape:locked="false"
       inkscape:label=""
       inkscape:color="rgb(0,134,229)" /><sodipodi:guide
       position="10,24.636719"
       orientation="-1,0"
       id="guide3"
       inkscape:locked="false"
       inkscape:label=""
       inkscape:color="rgb(0,134,229)" /><sodipodi:guide
       position="40,26.634781"
       orientation="-1,0"
       id="guide4"
       inkscape:locked="false"
       inkscape:label=""
       inkscape:color="rgb(0,134,229)" /></sodipodi:namedview><g
     inkscape:groupmode="layer"
     id="layer1"
     inkscape:label="Keys"
     style="display:inline;opacity:1"
     transform="translate(-571.89993,-124.65814)">&#10;&#10;&#10;&#10;&#10;&#10;&#10;&#10;&#10;&#10;&#10;&#10;&#10;&#10;&#10;&#10;&#10;&#10;&#10;&#10;&#10;&#10;&#10;&#10;&#10;&#10;&#10;&#10;&#10;&#10;&#10;&#10;&#10;&#10;&#10;&#10;&#10;&#10;&#10;&#10;&#10;&#10;&#10;&#10;&#10;&#10;&#10;&#10;&#10;&#10;&#10;&#10;&#10;&#10;&#10;&#10;&#10;&#10;&#10;&#10;&#10;&#10;&#10;&#10;&#10;&#10;&#10;&#10;&#10;&#10;&#10;&#10;&#10;&#10;&#10;&#10;&#10;&#10;&#10;&#10;&#10;&#10;&#10;&#10;&#10;&#10;&#10;&#10;&#10;&#10;&#10;&#10;&#10;&#10;&#10;&#10;&#10;&#10;&#10;&#10;&#10;&#10;&#10;&#10;&#10;&#10;&#10;&#10;&#10;&#10;&#10;&#10;&#10;&#10;&#10;&#10;&#10;&#10;&#10;&#10;&#10;&#10;&#10;&#10;&#10;&#10;&#10;&#10;&#10;&#10;&#10;&#10;&#10;&#10;&#10;&#10;&#10;&#10;&#10;&#10;&#10;&#10;&#10;&#10;&#10;&#10;&#10;&#10;&#10;&#10;&#10;&#10;&#10;&#10;&#10;&#10;&#10;&#10;&#10;&#10;&#10;&#10;&#10;&#10;&#10;&#10;&#10;&#10;&#10;&#10;&#10;&#10;&#10;&#10;&#10;&#10;&#10;&#10;&#10;&#10;&#10;&#10;&#10;&#10;&#10;&#10;&#10;&#10;&#10;&#10;&#10;&#10;&#10;&#10;&#10;&#10;&#10;&#10;&#10;&#10;&#10;&#10;&#10;&#10;&#10;&#10;&#10;&#10;&#10;&#10;&#10;&#10;&#10;&#10;&#10;<g
   id="g4056"
   transform="matrix(1.3333334,0,0,1.3333334,109.63986,119.96495)"
   style="fill:#800000;fill-opacity:1"><path
     inkscape:connector-curvature="0"
     id="path4054"
     d=""
     style="fill:#800000;stroke:none" /></g></g><g
     id="g10"
     inkscape:groupmode="layer"
     inkscape:label="Grid"
     transform="matrix(1.3333333,0,0,-1.3333333,-571.89993,404.3872)"
     style="display:inline"><g
       id="g14"><g
         id="g16"
         clip-path="url(#clipPath20)"><g
           id="g22"
           transform="translate(460.7484,322.6421)" /></g></g><g
       id="g24"
       transform="translate(460.7484,322.6421)" /><g
       id="g26"><g
         id="g28"
         clip-path="url(#clipPath32)"><g
           id="g34"
           transform="translate(511.845,322.6436)" /></g></g><g
       id="g36"
       transform="translate(511.845,322.6436)" /><g
       id="g38"><g
         id="g40"
         clip-path="url(#clipPath44)"><g
           id="g46"
           transform="translate(751.1232,96.0183)" /></g></g><g
       id="g48"
       transform="translate(751.1232,96.0183)" /><rect
       style="opacity:1;vector-effect:none;fill:none;fill-opacity:1;stroke:#0e0e0e;stroke-width:0.75;stroke-linecap:round;stroke-linejoin:round;stroke-miterlimit:4;stroke-dasharray:none;stroke-dashoffset:7.5;stroke-opacity:1;paint-order:markers stroke fill"
       id="rect858"
       width="36.75"
       height="36.75"
       x="429.29996"
       y="-302.91541"
       transform="scale(1,-1)"
       rx="3.6539953"
       ry="3.6539953" /><g
       id="g2"
       style="display:inline;fill:#000000;fill-opacity:1"
       transform="matrix(1.6536337,0,0,-1.6536337,-675.34008,384.42431)"><path
         d="m 0,0 h -6.573 c -0.153,0 -0.276,0.126 -0.276,0.281 v 0.463 c 0,0.155 0.123,0.281 0.276,0.281 H 0 c 0.153,0 0.277,-0.126 0.277,-0.281 V 0.281 C 0.277,0.126 0.153,0 0,0"
         style="fill:#000000;fill-opacity:1;fill-rule:nonzero;stroke:none"
         id="path13414"
         transform="matrix(1.3333333,0,0,-1.3333333,683.50092,66.072011)" /><path
         d="m 0,0 c 0,0.148 -0.119,0.268 -0.264,0.268 -0.79,0 -1.434,-0.652 -1.434,-1.455 0,-0.148 0.119,-0.268 0.265,-0.268 0.146,0 0.264,0.12 0.264,0.268 0,0.506 0.407,0.919 0.905,0.919 C -0.119,-0.268 0,-0.148 0,0 m 1.628,-1.171 c 0,-1.059 -0.846,-1.916 -1.888,-1.916 -1.042,0 -1.887,0.857 -1.887,1.916 0,1.058 0.845,1.916 1.887,1.916 1.042,0 1.888,-0.858 1.888,-1.916"
         style="fill:#000000;fill-opacity:1;fill-rule:nonzero;stroke:none"
         id="path13418"
         transform="matrix(1.3333333,0,0,-1.3333333,679.46545,55.726678)" /><path
         d="M 0,0 C -0.222,0 -0.436,0.033 -0.639,0.096 V -2.043 H 0.638 V 0.096 C 0.436,0.033 0.222,0 0,0"
         style="fill:#000000;fill-opacity:1;fill-rule:nonzero;stroke:none"
         id="path13422"
         transform="matrix(1.3333333,0,0,-1.3333333,679.11918,60.860411)" /><path
         d="m 0,0 h -1.461 c -0.1,0 -0.181,-0.077 -0.181,-0.172 v -0.434 h 1.823 v 0.434 C 0.181,-0.077 0.1,0 0,0"
         style="fill:#000000;fill-opacity:1;fill-rule:nonzero;stroke:none"
         id="path13426"
         transform="matrix(1.3333333,0,0,-1.3333333,676.89238,62.776144)" /><path
         d="M 0,0 H -1.461 C -1.56,0 -1.642,-0.077 -1.642,-0.172 v -0.434 h 1.823 v 0.434 C 0.181,-0.077 0.1,0 0,0"
         style="fill:#000000;fill-opacity:1;fill-rule:nonzero;stroke:none"
         id="path13430"
         transform="matrix(1.3333333,0,0,-1.3333333,683.29332,62.776144)" /></g></g></svg>
