<?xml version="1.0" encoding="UTF-8" standalone="no"?>
<!-- Created with Inkscape (http://www.inkscape.org/) -->

<svg
   version="1.1"
   id="svg2"
   xml:space="preserve"
   width="50"
   height="50"
   viewBox="0 0 50 50"
   sodipodi:docname="TXKEY-KBD-LED-DARKER.svg"
   inkscape:version="1.3 (0e150ed6c4, 2023-07-21)"
   xmlns:inkscape="http://www.inkscape.org/namespaces/inkscape"
   xmlns:sodipodi="http://sodipodi.sourceforge.net/DTD/sodipodi-0.dtd"
   xmlns="http://www.w3.org/2000/svg"
   xmlns:svg="http://www.w3.org/2000/svg"
   xmlns:rdf="http://www.w3.org/1999/02/22-rdf-syntax-ns#"
   xmlns:cc="http://creativecommons.org/ns#"
   xmlns:dc="http://purl.org/dc/elements/1.1/"><metadata
     id="metadata8"><rdf:RDF><cc:Work
         rdf:about=""><dc:format>image/svg+xml</dc:format><dc:type
           rdf:resource="http://purl.org/dc/dcmitype/StillImage" /></cc:Work></rdf:RDF></metadata><defs
     id="defs6"><clipPath
       clipPathUnits="userSpaceOnUse"
       id="clipPath20"><path
         d="M 0,396.784 H 1048.812 V 0 H 0 Z"
         id="path18"
         inkscape:connector-curvature="0" /></clipPath><clipPath
       clipPathUnits="userSpaceOnUse"
       id="clipPath32"><path
         d="M 0,396.784 H 1048.812 V 0 H 0 Z"
         id="path30"
         inkscape:connector-curvature="0" /></clipPath><clipPath
       clipPathUnits="userSpaceOnUse"
       id="clipPath44"><path
         d="M 0,396.784 H 1048.812 V 0 H 0 Z"
         id="path42"
         inkscape:connector-curvature="0" /></clipPath><clipPath
       clipPathUnits="userSpaceOnUse"
       id="clipPath144"><path
         d="M 0,396.784 H 1048.812 V 0 H 0 Z"
         id="path142"
         inkscape:connector-curvature="0" /></clipPath><clipPath
       clipPathUnits="userSpaceOnUse"
       id="clipPath11642"><path
         d="M 0,396.784 H 1048.812 V 0 H 0 Z"
         id="path11640"
         inkscape:connector-curvature="0" /></clipPath><clipPath
       clipPathUnits="userSpaceOnUse"
       id="clipPath11704"><path
         d="M 0,396.784 H 1048.812 V 0 H 0 Z"
         id="path11702"
         inkscape:connector-curvature="0" /></clipPath><clipPath
       clipPathUnits="userSpaceOnUse"
       id="clipPath11760"><path
         d="M 0,396.784 H 1048.812 V 0 H 0 Z"
         id="path11758"
         inkscape:connector-curvature="0" /></clipPath><clipPath
       clipPathUnits="userSpaceOnUse"
       id="clipPath11792"><path
         d="M 0,396.784 H 1048.812 V 0 H 0 Z"
         id="path11790"
         inkscape:connector-curvature="0" /></clipPath><clipPath
       clipPathUnits="userSpaceOnUse"
       id="clipPath12004"><path
         d="M 0,396.784 H 1048.812 V 0 H 0 Z"
         id="path12002"
         inkscape:connector-curvature="0" /></clipPath><clipPath
       clipPathUnits="userSpaceOnUse"
       id="clipPath12102"><path
         d="M 0,396.784 H 1048.812 V 0 H 0 Z"
         id="path12100"
         inkscape:connector-curvature="0" /></clipPath><clipPath
       clipPathUnits="userSpaceOnUse"
       id="clipPath12110"><path
         d="M 65.8949,341.554 H 982.935 V 55.2325 H 65.8949 Z"
         id="path12108"
         inkscape:connector-curvature="0" /></clipPath><clipPath
       id="XMLID_12_">&#10;		<rect
   y="0"
   x="0"
   height="382.677"
   width="1077.165"
   id="use815" />&#10;	</clipPath><clipPath
       id="XMLID_12_-3">&#10;		<rect
   y="0"
   x="0"
   height="382.677"
   width="1077.165"
   id="use815-6" />&#10;	</clipPath></defs><sodipodi:namedview
     pagecolor="#ffffff"
     bordercolor="#666666"
     borderopacity="1"
     objecttolerance="10"
     gridtolerance="10"
     guidetolerance="10"
     inkscape:pageopacity="0"
     inkscape:pageshadow="2"
     inkscape:window-width="2031"
     inkscape:window-height="1254"
     id="namedview4"
     showgrid="false"
     inkscape:zoom="16"
     inkscape:cx="19.59375"
     inkscape:cy="25.4375"
     inkscape:window-x="26"
     inkscape:window-y="23"
     inkscape:window-maximized="0"
     inkscape:current-layer="g10"
     inkscape:pagecheckerboard="0"
     inkscape:snap-global="true"
     showguides="true"
     inkscape:guide-bbox="true"
     inkscape:showpageshadow="2"
     inkscape:deskcolor="#d1d1d1"><sodipodi:guide
       position="-11.142419,25"
       orientation="0,1"
       id="guide1"
       inkscape:locked="false"
       inkscape:label=""
       inkscape:color="rgb(0,134,229)" /><sodipodi:guide
       position="25,23.603154"
       orientation="-1,0"
       id="guide2"
       inkscape:locked="false"
       inkscape:label=""
       inkscape:color="rgb(0,134,229)" /><sodipodi:guide
       position="10,24.636719"
       orientation="-1,0"
       id="guide3"
       inkscape:locked="false"
       inkscape:label=""
       inkscape:color="rgb(0,134,229)" /><sodipodi:guide
       position="40,26.634781"
       orientation="-1,0"
       id="guide4"
       inkscape:locked="false"
       inkscape:label=""
       inkscape:color="rgb(0,134,229)" /><sodipodi:guide
       position="32.8125,40.0625"
       orientation="0,-1"
       id="guide5"
       inkscape:locked="false" /></sodipodi:namedview><g
     inkscape:groupmode="layer"
     id="layer1"
     inkscape:label="Keys"
     style="display:inline;opacity:1"
     transform="translate(-571.89993,-124.65814)">&#10;&#10;&#10;&#10;&#10;&#10;&#10;&#10;&#10;&#10;&#10;&#10;&#10;&#10;&#10;&#10;&#10;&#10;&#10;&#10;&#10;&#10;&#10;&#10;&#10;&#10;&#10;&#10;&#10;&#10;&#10;&#10;&#10;&#10;&#10;&#10;&#10;&#10;&#10;&#10;&#10;&#10;&#10;&#10;&#10;&#10;&#10;&#10;&#10;&#10;&#10;&#10;&#10;&#10;&#10;&#10;&#10;&#10;&#10;&#10;&#10;&#10;&#10;&#10;&#10;&#10;&#10;&#10;&#10;&#10;&#10;&#10;&#10;&#10;&#10;&#10;&#10;&#10;&#10;&#10;&#10;&#10;&#10;&#10;&#10;&#10;&#10;&#10;&#10;&#10;&#10;&#10;&#10;&#10;&#10;&#10;&#10;&#10;&#10;&#10;&#10;&#10;&#10;&#10;&#10;&#10;&#10;&#10;&#10;&#10;&#10;&#10;&#10;&#10;&#10;&#10;&#10;&#10;&#10;&#10;&#10;&#10;&#10;&#10;&#10;&#10;&#10;&#10;&#10;&#10;&#10;&#10;&#10;&#10;&#10;&#10;&#10;&#10;&#10;&#10;&#10;&#10;&#10;&#10;&#10;&#10;&#10;&#10;&#10;&#10;&#10;&#10;&#10;&#10;&#10;&#10;&#10;&#10;&#10;&#10;&#10;&#10;&#10;&#10;&#10;&#10;&#10;&#10;&#10;&#10;&#10;&#10;&#10;&#10;&#10;&#10;&#10;&#10;&#10;&#10;&#10;&#10;&#10;&#10;&#10;&#10;&#10;&#10;&#10;&#10;&#10;&#10;&#10;&#10;&#10;&#10;&#10;&#10;&#10;&#10;&#10;&#10;&#10;&#10;&#10;&#10;&#10;&#10;&#10;&#10;&#10;&#10;&#10;&#10;&#10;<g
   id="g4056"
   transform="matrix(1.3333334,0,0,1.3333334,109.63986,119.96495)"
   style="fill:#800000;fill-opacity:1"><path
     inkscape:connector-curvature="0"
     id="path4054"
     d=""
     style="fill:#800000;stroke:none" /></g></g><g
     id="g10"
     inkscape:groupmode="layer"
     inkscape:label="Grid"
     transform="matrix(1.3333333,0,0,-1.3333333,-571.89993,404.3872)"
     style="display:inline"><g
       id="g14"><g
         id="g16"
         clip-path="url(#clipPath20)"><g
           id="g22"
           transform="translate(460.7484,322.6421)" /></g></g><g
       id="g24"
       transform="translate(460.7484,322.6421)" /><g
       id="g26"><g
         id="g28"
         clip-path="url(#clipPath32)"><g
           id="g34"
           transform="translate(511.845,322.6436)" /></g></g><g
       id="g36"
       transform="translate(511.845,322.6436)" /><g
       id="g38"><g
         id="g40"
         clip-path="url(#clipPath44)"><g
           id="g46"
           transform="translate(751.1232,96.0183)" /></g></g><g
       id="g48"
       transform="translate(751.1232,96.0183)" /><rect
       style="opacity:1;vector-effect:none;fill:none;fill-opacity:1;stroke:#0e0e0e;stroke-width:0.75;stroke-linecap:round;stroke-linejoin:round;stroke-miterlimit:4;stroke-dasharray:none;stroke-dashoffset:7.5;stroke-opacity:1;paint-order:markers stroke fill"
       id="rect858"
       width="36.75"
       height="36.75"
       x="429.29996"
       y="-302.91541"
       transform="scale(1,-1)"
       rx="3.6539953"
       ry="3.6539953" /><text
       transform="scale(1.2247449,-0.81649657)"
       fill="#FFFFFF"
       font-family="Arial"
       font-size="19.9206px"
       id="text668"
       style="display:inline;fill:#000000;fill-opacity:1;stroke-width:1.24504"
       x="362.20822"
       y="-357.04117">-</text><path
       style="display:inline;fill:#000000;fill-opacity:1"
       id="path868"
       d="m 962.859,106.288 c 1.279,0 2.13,0.099 2.455,0.144 l 0.375,0.375 c 0.046,0.326 0.145,1.176 0.145,2.456 0,1.279 -0.099,2.129 -0.145,2.455 l -0.375,0.375 c -0.325,0.046 -1.176,0.145 -2.455,0.145 -1.279,0 -2.13,-0.099 -2.455,-0.145 l -0.375,-0.375 c -0.046,-0.326 -0.145,-1.176 -0.145,-2.455 0,-1.28 0.099,-2.13 0.145,-2.456 l 0.375,-0.375 c 0.325,-0.045 1.176,-0.144 2.455,-0.144 m 0,-0.5 c -1.733,0 -2.693,0.175 -2.693,0.175 l -0.606,0.607 c 0,0 -0.175,0.959 -0.175,2.693 0,1.733 0.175,2.693 0.175,2.693 l 0.606,0.606 c 0,0 0.96,0.176 2.693,0.176 1.733,0 2.693,-0.176 2.693,-0.176 l 0.606,-0.606 c 0,0 0.175,-0.96 0.175,-2.693 0,-1.734 -0.175,-2.693 -0.175,-2.693 l -0.606,-0.607 c 10e-4,0 -0.959,-0.175 -2.693,-0.175 m 0.699,2.494 0.336,-0.336 c 0.087,-0.087 0.228,-0.086 0.313,0 0.087,0.086 0.087,0.227 0,0.313 l -0.336,0.336 c -0.085,-0.123 -0.19,-0.229 -0.313,-0.313 m -1.985,-0.022 0.336,0.336 c 0.084,-0.124 0.19,-0.23 0.313,-0.314 l -0.336,-0.336 c -0.087,-0.085 -0.227,-0.087 -0.313,0 -0.087,0.086 -0.087,0.227 0,0.314 m 2.503,1.003 c 0,0.076 -0.008,0.149 -0.021,0.222 h 0.476 c 0.123,-0.001 0.223,-0.1 0.223,-0.222 0,-0.123 -0.1,-0.221 -0.222,-0.222 h -0.477 c 0.013,0.072 0.021,0.146 0.021,0.222 m -1.408,-1.165 c 0.072,-0.014 0.146,-0.022 0.222,-0.022 0.076,0 0.15,0.008 0.223,0.022 v -0.476 c 0,-0.123 -0.1,-0.221 -0.223,-0.222 -0.122,0 -0.222,0.099 -0.222,0.222 z m 1.539,2.168 -0.336,-0.336 c -0.085,0.124 -0.19,0.23 -0.313,0.314 l 0.336,0.336 c 0.021,0.021 0.046,0.037 0.071,0.048 0.081,0.033 0.177,0.017 0.242,-0.048 0.087,-0.086 0.087,-0.227 0,-0.314 m -1.096,0.162 c -0.071,0.013 -0.146,0.022 -0.222,0.022 -0.076,0 -0.149,-0.009 -0.222,-0.022 v 0.476 c 0,0.092 0.057,0.172 0.137,0.205 0.025,0.01 0.055,0.016 0.085,0.017 0.123,-0.001 0.222,-0.1 0.222,-0.222 z m -1.202,-0.497 -0.336,0.335 c -0.087,0.087 -0.087,0.228 0,0.314 0.021,0.021 0.045,0.037 0.071,0.048 0.081,0.033 0.177,0.017 0.242,-0.048 l 0.336,-0.336 c -0.122,-0.084 -0.229,-0.19 -0.313,-0.313 m -0.207,-0.668 c 0,-0.076 0.01,-0.15 0.023,-0.222 h -0.477 c -0.122,0 -0.222,0.099 -0.222,0.222 0,0.092 0.057,0.171 0.137,0.205 0.026,0.01 0.055,0.017 0.085,0.017 h 0.477 c -0.013,-0.073 -0.023,-0.146 -0.023,-0.222 m 1.188,-0.79 c -0.437,0 -0.789,0.354 -0.789,0.79 0,0.436 0.353,0.79 0.789,0.79 0.436,0 0.79,-0.354 0.79,-0.79 0,-0.436 -0.354,-0.79 -0.79,-0.79"
       fill="#FFFFFF"
       clip-path="url(#XMLID_12_-3)"
       transform="matrix(2.6986184,0,0,-2.6986184,-2150.7141,574.89955)" /></g></svg>
