<?xml version="1.0" encoding="UTF-8" standalone="no"?>
<!-- Created with Inkscape (http://www.inkscape.org/) -->

<svg
   version="1.1"
   id="svg2"
   xml:space="preserve"
   width="50"
   height="50"
   viewBox="0 0 50 50"
   sodipodi:docname="TXKEY-DSPL-DARKER.svg"
   inkscape:version="1.3 (0e150ed6c4, 2023-07-21)"
   xmlns:inkscape="http://www.inkscape.org/namespaces/inkscape"
   xmlns:sodipodi="http://sodipodi.sourceforge.net/DTD/sodipodi-0.dtd"
   xmlns="http://www.w3.org/2000/svg"
   xmlns:svg="http://www.w3.org/2000/svg"
   xmlns:rdf="http://www.w3.org/1999/02/22-rdf-syntax-ns#"
   xmlns:cc="http://creativecommons.org/ns#"
   xmlns:dc="http://purl.org/dc/elements/1.1/"><metadata
     id="metadata8"><rdf:RDF><cc:Work
         rdf:about=""><dc:format>image/svg+xml</dc:format><dc:type
           rdf:resource="http://purl.org/dc/dcmitype/StillImage" /></cc:Work></rdf:RDF></metadata><defs
     id="defs6"><clipPath
       clipPathUnits="userSpaceOnUse"
       id="clipPath20"><path
         d="M 0,396.784 H 1048.812 V 0 H 0 Z"
         id="path18"
         inkscape:connector-curvature="0" /></clipPath><clipPath
       clipPathUnits="userSpaceOnUse"
       id="clipPath32"><path
         d="M 0,396.784 H 1048.812 V 0 H 0 Z"
         id="path30"
         inkscape:connector-curvature="0" /></clipPath><clipPath
       clipPathUnits="userSpaceOnUse"
       id="clipPath44"><path
         d="M 0,396.784 H 1048.812 V 0 H 0 Z"
         id="path42"
         inkscape:connector-curvature="0" /></clipPath><clipPath
       clipPathUnits="userSpaceOnUse"
       id="clipPath144"><path
         d="M 0,396.784 H 1048.812 V 0 H 0 Z"
         id="path142"
         inkscape:connector-curvature="0" /></clipPath><clipPath
       clipPathUnits="userSpaceOnUse"
       id="clipPath11642"><path
         d="M 0,396.784 H 1048.812 V 0 H 0 Z"
         id="path11640"
         inkscape:connector-curvature="0" /></clipPath><clipPath
       clipPathUnits="userSpaceOnUse"
       id="clipPath11704"><path
         d="M 0,396.784 H 1048.812 V 0 H 0 Z"
         id="path11702"
         inkscape:connector-curvature="0" /></clipPath><clipPath
       clipPathUnits="userSpaceOnUse"
       id="clipPath11760"><path
         d="M 0,396.784 H 1048.812 V 0 H 0 Z"
         id="path11758"
         inkscape:connector-curvature="0" /></clipPath><clipPath
       clipPathUnits="userSpaceOnUse"
       id="clipPath11792"><path
         d="M 0,396.784 H 1048.812 V 0 H 0 Z"
         id="path11790"
         inkscape:connector-curvature="0" /></clipPath><clipPath
       clipPathUnits="userSpaceOnUse"
       id="clipPath12004"><path
         d="M 0,396.784 H 1048.812 V 0 H 0 Z"
         id="path12002"
         inkscape:connector-curvature="0" /></clipPath><clipPath
       clipPathUnits="userSpaceOnUse"
       id="clipPath12102"><path
         d="M 0,396.784 H 1048.812 V 0 H 0 Z"
         id="path12100"
         inkscape:connector-curvature="0" /></clipPath><clipPath
       clipPathUnits="userSpaceOnUse"
       id="clipPath12110"><path
         d="M 65.8949,341.554 H 982.935 V 55.2325 H 65.8949 Z"
         id="path12108"
         inkscape:connector-curvature="0" /></clipPath><clipPath
       id="XMLID_12_">&#10;		<rect
   y="0"
   x="0"
   height="382.677"
   width="1077.165"
   id="use815" />&#10;	</clipPath><clipPath
       id="XMLID_12_-3">&#10;		<rect
   y="0"
   x="0"
   height="382.677"
   width="1077.165"
   id="use815-6" />&#10;	</clipPath><clipPath
       id="XMLID_12_-5">&#10;		<rect
   y="0"
   x="0"
   height="382.677"
   width="1077.165"
   id="use815-62" />&#10;	</clipPath><clipPath
       id="XMLID_12_-9">&#10;		<rect
   y="0"
   x="0"
   height="382.677"
   width="1077.165"
   id="use815-1" />&#10;	</clipPath><clipPath
       id="clipPath1">&#10;		<rect
   y="0"
   x="0"
   height="382.677"
   width="1077.165"
   id="use1" />&#10;	</clipPath><clipPath
       id="clipPath2">&#10;		<rect
   y="0"
   x="0"
   height="382.677"
   width="1077.165"
   id="use2" />&#10;	</clipPath></defs><sodipodi:namedview
     pagecolor="#ffffff"
     bordercolor="#666666"
     borderopacity="1"
     objecttolerance="10"
     gridtolerance="10"
     guidetolerance="10"
     inkscape:pageopacity="0"
     inkscape:pageshadow="2"
     inkscape:window-width="2031"
     inkscape:window-height="1254"
     id="namedview4"
     showgrid="false"
     inkscape:zoom="16"
     inkscape:cx="19.59375"
     inkscape:cy="25.4375"
     inkscape:window-x="26"
     inkscape:window-y="23"
     inkscape:window-maximized="0"
     inkscape:current-layer="g10"
     inkscape:pagecheckerboard="0"
     inkscape:snap-global="true"
     showguides="true"
     inkscape:guide-bbox="true"
     inkscape:showpageshadow="2"
     inkscape:deskcolor="#d1d1d1"><sodipodi:guide
       position="-11.142419,25"
       orientation="0,1"
       id="guide1"
       inkscape:locked="false"
       inkscape:label=""
       inkscape:color="rgb(0,134,229)" /><sodipodi:guide
       position="25,23.603154"
       orientation="-1,0"
       id="guide2"
       inkscape:locked="false"
       inkscape:label=""
       inkscape:color="rgb(0,134,229)" /><sodipodi:guide
       position="10,24.636719"
       orientation="-1,0"
       id="guide3"
       inkscape:locked="false"
       inkscape:label=""
       inkscape:color="rgb(0,134,229)" /><sodipodi:guide
       position="40,26.634781"
       orientation="-1,0"
       id="guide4"
       inkscape:locked="false"
       inkscape:label=""
       inkscape:color="rgb(0,134,229)" /><sodipodi:guide
       position="32.8125,40.0625"
       orientation="0,-1"
       id="guide5"
       inkscape:locked="false" /></sodipodi:namedview><g
     inkscape:groupmode="layer"
     id="layer1"
     inkscape:label="Keys"
     style="display:inline;opacity:1"
     transform="translate(-571.89993,-124.65814)">&#10;&#10;&#10;&#10;&#10;&#10;&#10;&#10;&#10;&#10;&#10;&#10;&#10;&#10;&#10;&#10;&#10;&#10;&#10;&#10;&#10;&#10;&#10;&#10;&#10;&#10;&#10;&#10;&#10;&#10;&#10;&#10;&#10;&#10;&#10;&#10;&#10;&#10;&#10;&#10;&#10;&#10;&#10;&#10;&#10;&#10;&#10;&#10;&#10;&#10;&#10;&#10;&#10;&#10;&#10;&#10;&#10;&#10;&#10;&#10;&#10;&#10;&#10;&#10;&#10;&#10;&#10;&#10;&#10;&#10;&#10;&#10;&#10;&#10;&#10;&#10;&#10;&#10;&#10;&#10;&#10;&#10;&#10;&#10;&#10;&#10;&#10;&#10;&#10;&#10;&#10;&#10;&#10;&#10;&#10;&#10;&#10;&#10;&#10;&#10;&#10;&#10;&#10;&#10;&#10;&#10;&#10;&#10;&#10;&#10;&#10;&#10;&#10;&#10;&#10;&#10;&#10;&#10;&#10;&#10;&#10;&#10;&#10;&#10;&#10;&#10;&#10;&#10;&#10;&#10;&#10;&#10;&#10;&#10;&#10;&#10;&#10;&#10;&#10;&#10;&#10;&#10;&#10;&#10;&#10;&#10;&#10;&#10;&#10;&#10;&#10;&#10;&#10;&#10;&#10;&#10;&#10;&#10;&#10;&#10;&#10;&#10;&#10;&#10;&#10;&#10;&#10;&#10;&#10;&#10;&#10;&#10;&#10;&#10;&#10;&#10;&#10;&#10;&#10;&#10;&#10;&#10;&#10;&#10;&#10;&#10;&#10;&#10;&#10;&#10;&#10;&#10;&#10;&#10;&#10;&#10;&#10;&#10;&#10;&#10;&#10;&#10;&#10;&#10;&#10;&#10;&#10;&#10;&#10;&#10;&#10;&#10;&#10;&#10;&#10;<g
   id="g4056"
   transform="matrix(1.3333334,0,0,1.3333334,109.63986,119.96495)"
   style="fill:#800000;fill-opacity:1"><path
     inkscape:connector-curvature="0"
     id="path4054"
     d=""
     style="fill:#800000;stroke:none" /></g></g><g
     id="g10"
     inkscape:groupmode="layer"
     inkscape:label="Grid"
     transform="matrix(1.3333333,0,0,-1.3333333,-571.89993,404.3872)"
     style="display:inline"><g
       id="g14"><g
         id="g16"
         clip-path="url(#clipPath20)"><g
           id="g22"
           transform="translate(460.7484,322.6421)" /></g></g><g
       id="g24"
       transform="translate(460.7484,322.6421)" /><g
       id="g26"><g
         id="g28"
         clip-path="url(#clipPath32)"><g
           id="g34"
           transform="translate(511.845,322.6436)" /></g></g><g
       id="g36"
       transform="translate(511.845,322.6436)" /><g
       id="g38"><g
         id="g40"
         clip-path="url(#clipPath44)"><g
           id="g46"
           transform="translate(751.1232,96.0183)" /></g></g><g
       id="g48"
       transform="translate(751.1232,96.0183)" /><rect
       style="opacity:1;vector-effect:none;fill:none;fill-opacity:1;stroke:#0e0e0e;stroke-width:0.75;stroke-linecap:round;stroke-linejoin:round;stroke-miterlimit:4;stroke-dasharray:none;stroke-dashoffset:7.5;stroke-opacity:1;paint-order:markers stroke fill"
       id="rect858"
       width="36.75"
       height="36.75"
       x="429.29996"
       y="-302.91541"
       transform="scale(1,-1)"
       rx="3.6539953"
       ry="3.6539953" /><g
       id="g5"
       transform="matrix(2.0029555,0,0,2.0029555,-440.71929,-282.37191)"><path
         inkscape:connector-curvature="0"
         id="path11882"
         style="display:inline;fill:#000000;fill-opacity:1;fill-rule:nonzero;stroke:none;stroke-width:0.999998"
         d="m 440.92698,284.3104 c -0.703,0 -1.273,-0.57 -1.273,-1.272 0,-0.704 0.57,-1.274 1.273,-1.274 0.702,0 1.272,0.57 1.272,1.274 0,0.702 -0.57,1.272 -1.272,1.272 m -1.914,-1.272 c 0,0.122 0.015,0.241 0.037,0.357 h -0.768 c -0.19699,0 -0.357,-0.16 -0.357,-0.357 0,-0.15 0.091,-0.278 0.22001,-0.331 0.042,-0.017 0.089,-0.027 0.13699,-0.028 h 0.768 c -0.022,0.117 -0.037,0.236 -0.037,0.359 m 0.332,-1.076 -0.541,-0.543 c -0.139,-0.139 -0.139,-0.365 0,-0.505 0.035,-0.034 0.074,-0.06 0.116,-0.078 0.129,-0.053 0.284,-0.027 0.39,0.078 l 0.541,0.542 c -0.199,0.135 -0.371,0.307 -0.506,0.506 m 1.939,-0.802 c -0.116,-0.022 -0.235,-0.036 -0.357,-0.036 -0.123,0 -0.242,0.014 -0.358,0.036 v -0.767 c 0,-0.149 0.091,-0.277 0.22,-0.331 0.043,-0.018 0.088,-0.026 0.137,-0.027 0.198,9.7e-4 0.357,0.16 0.358,0.357 z m 1.765,0.26 -0.541,0.542 c -0.135,-0.199 -0.307,-0.371 -0.506,-0.506 l 0.541,-0.542 c 0.035,-0.034 0.075,-0.06 0.117,-0.077 0.129,-0.054 0.284,-0.028 0.39,0.077 0.139,0.14 0.139,0.366 -7.5e-4,0.506 m -2.47999,3.494 c 0.11599,0.022 0.23499,0.036 0.35799,0.036 0.12201,0 0.241,-0.014 0.357,-0.036 v 0.767 c 0,0.198 -0.161,0.357 -0.357,0.359 -0.197,-9.8e-4 -0.357,-0.16 -0.357,-0.359 z m 2.271,-1.876 c 0,-0.123 -0.015,-0.242 -0.036,-0.358 h 0.76699 c 0.197,0 0.357,0.16 0.357,0.358 0,0.197 -0.16,0.354 -0.357,0.357 h -0.768 c 0.022,-0.116 0.037,-0.235 0.037,-0.357 m -4.03601,1.616 0.54101,-0.541 c 0.135,0.198 0.30699,0.37 0.50599,0.506 l -0.541,0.541 c -0.14,0.137 -0.365,0.14 -0.506,0 -0.139,-0.139 -0.139,-0.366 0,-0.506 m 3.198,-0.035 0.54101,0.541 c 0.13999,0.14 0.36699,0.138 0.50599,0 0.14,-0.139 0.14,-0.366 7.5e-4,-0.505 l -0.542,-0.542 c -0.135,0.198 -0.307,0.37 -0.506,0.506" /><path
         d="m 445.91638,283.5441 h 3.242 v -1.013 h -3.242 z"
         style="display:inline;fill:#000000;fill-opacity:1;fill-rule:nonzero;stroke:none;stroke-width:0.999998"
         id="path11884"
         inkscape:connector-curvature="0" /></g></g></svg>
