<?xml version="1.0" encoding="UTF-8" standalone="no"?>
<!-- Created with Inkscape (http://www.inkscape.org/) -->

<svg
   version="1.1"
   id="svg2"
   xml:space="preserve"
   width="50"
   height="50"
   viewBox="0 0 50 50"
   sodipodi:docname="TXKEY-FN.svg"
   inkscape:version="1.3 (0e150ed6c4, 2023-07-21)"
   xmlns:inkscape="http://www.inkscape.org/namespaces/inkscape"
   xmlns:sodipodi="http://sodipodi.sourceforge.net/DTD/sodipodi-0.dtd"
   xmlns="http://www.w3.org/2000/svg"
   xmlns:svg="http://www.w3.org/2000/svg"
   xmlns:rdf="http://www.w3.org/1999/02/22-rdf-syntax-ns#"
   xmlns:cc="http://creativecommons.org/ns#"
   xmlns:dc="http://purl.org/dc/elements/1.1/"><metadata
     id="metadata8"><rdf:RDF><cc:Work
         rdf:about=""><dc:format>image/svg+xml</dc:format><dc:type
           rdf:resource="http://purl.org/dc/dcmitype/StillImage" /></cc:Work></rdf:RDF></metadata><defs
     id="defs6"><clipPath
       clipPathUnits="userSpaceOnUse"
       id="clipPath20"><path
         d="M 0,396.784 H 1048.812 V 0 H 0 Z"
         id="path18"
         inkscape:connector-curvature="0" /></clipPath><clipPath
       clipPathUnits="userSpaceOnUse"
       id="clipPath32"><path
         d="M 0,396.784 H 1048.812 V 0 H 0 Z"
         id="path30"
         inkscape:connector-curvature="0" /></clipPath><clipPath
       clipPathUnits="userSpaceOnUse"
       id="clipPath44"><path
         d="M 0,396.784 H 1048.812 V 0 H 0 Z"
         id="path42"
         inkscape:connector-curvature="0" /></clipPath><clipPath
       clipPathUnits="userSpaceOnUse"
       id="clipPath144"><path
         d="M 0,396.784 H 1048.812 V 0 H 0 Z"
         id="path142"
         inkscape:connector-curvature="0" /></clipPath><clipPath
       clipPathUnits="userSpaceOnUse"
       id="clipPath11642"><path
         d="M 0,396.784 H 1048.812 V 0 H 0 Z"
         id="path11640"
         inkscape:connector-curvature="0" /></clipPath><clipPath
       clipPathUnits="userSpaceOnUse"
       id="clipPath11704"><path
         d="M 0,396.784 H 1048.812 V 0 H 0 Z"
         id="path11702"
         inkscape:connector-curvature="0" /></clipPath><clipPath
       clipPathUnits="userSpaceOnUse"
       id="clipPath11760"><path
         d="M 0,396.784 H 1048.812 V 0 H 0 Z"
         id="path11758"
         inkscape:connector-curvature="0" /></clipPath><clipPath
       clipPathUnits="userSpaceOnUse"
       id="clipPath11792"><path
         d="M 0,396.784 H 1048.812 V 0 H 0 Z"
         id="path11790"
         inkscape:connector-curvature="0" /></clipPath><clipPath
       clipPathUnits="userSpaceOnUse"
       id="clipPath12004"><path
         d="M 0,396.784 H 1048.812 V 0 H 0 Z"
         id="path12002"
         inkscape:connector-curvature="0" /></clipPath><clipPath
       clipPathUnits="userSpaceOnUse"
       id="clipPath12102"><path
         d="M 0,396.784 H 1048.812 V 0 H 0 Z"
         id="path12100"
         inkscape:connector-curvature="0" /></clipPath><clipPath
       clipPathUnits="userSpaceOnUse"
       id="clipPath12110"><path
         d="M 65.8949,341.554 H 982.935 V 55.2325 H 65.8949 Z"
         id="path12108"
         inkscape:connector-curvature="0" /></clipPath><clipPath
       id="XMLID_12_">&#10;		<rect
   y="0"
   x="0"
   height="382.677"
   width="1077.165"
   id="use815" />&#10;	</clipPath><clipPath
       id="XMLID_12_-3">&#10;		<rect
   y="0"
   x="0"
   height="382.677"
   width="1077.165"
   id="use815-6" />&#10;	</clipPath><clipPath
       id="XMLID_12_-5">&#10;		<rect
   y="0"
   x="0"
   height="382.677"
   width="1077.165"
   id="use815-62" />&#10;	</clipPath><clipPath
       id="XMLID_12_-9">&#10;		<rect
   y="0"
   x="0"
   height="382.677"
   width="1077.165"
   id="use815-1" />&#10;	</clipPath><clipPath
       id="clipPath1">&#10;		<rect
   y="0"
   x="0"
   height="382.677"
   width="1077.165"
   id="use1" />&#10;	</clipPath><clipPath
       id="clipPath2">&#10;		<rect
   y="0"
   x="0"
   height="382.677"
   width="1077.165"
   id="use2" />&#10;	</clipPath></defs><sodipodi:namedview
     pagecolor="#ffffff"
     bordercolor="#666666"
     borderopacity="1"
     objecttolerance="10"
     gridtolerance="10"
     guidetolerance="10"
     inkscape:pageopacity="0"
     inkscape:pageshadow="2"
     inkscape:window-width="2560"
     inkscape:window-height="1371"
     id="namedview4"
     showgrid="false"
     inkscape:zoom="16"
     inkscape:cx="19.59375"
     inkscape:cy="25.40625"
     inkscape:window-x="0"
     inkscape:window-y="0"
     inkscape:window-maximized="1"
     inkscape:current-layer="g10"
     inkscape:pagecheckerboard="0"
     inkscape:snap-global="true"
     showguides="true"
     inkscape:guide-bbox="true"
     inkscape:showpageshadow="2"
     inkscape:deskcolor="#d1d1d1"><sodipodi:guide
       position="-11.142419,25"
       orientation="0,1"
       id="guide1"
       inkscape:locked="false"
       inkscape:label=""
       inkscape:color="rgb(0,134,229)" /><sodipodi:guide
       position="25,23.603154"
       orientation="-1,0"
       id="guide2"
       inkscape:locked="false"
       inkscape:label=""
       inkscape:color="rgb(0,134,229)" /><sodipodi:guide
       position="10,24.636719"
       orientation="-1,0"
       id="guide3"
       inkscape:locked="false"
       inkscape:label=""
       inkscape:color="rgb(0,134,229)" /><sodipodi:guide
       position="40,26.634781"
       orientation="-1,0"
       id="guide4"
       inkscape:locked="false"
       inkscape:label=""
       inkscape:color="rgb(0,134,229)" /><sodipodi:guide
       position="32.8125,40.0625"
       orientation="0,-1"
       id="guide5"
       inkscape:locked="false" /></sodipodi:namedview><g
     inkscape:groupmode="layer"
     id="layer1"
     inkscape:label="Keys"
     style="display:inline;opacity:1"
     transform="translate(-571.89993,-124.65814)">&#10;&#10;&#10;&#10;&#10;&#10;&#10;&#10;&#10;&#10;&#10;&#10;&#10;&#10;&#10;&#10;&#10;&#10;&#10;&#10;&#10;&#10;&#10;&#10;&#10;&#10;&#10;&#10;&#10;&#10;&#10;&#10;&#10;&#10;&#10;&#10;&#10;&#10;&#10;&#10;&#10;&#10;&#10;&#10;&#10;&#10;&#10;&#10;&#10;&#10;&#10;&#10;&#10;&#10;&#10;&#10;&#10;&#10;&#10;&#10;&#10;&#10;&#10;&#10;&#10;&#10;&#10;&#10;&#10;&#10;&#10;&#10;&#10;&#10;&#10;&#10;&#10;&#10;&#10;&#10;&#10;&#10;&#10;&#10;&#10;&#10;&#10;&#10;&#10;&#10;&#10;&#10;&#10;&#10;&#10;&#10;&#10;&#10;&#10;&#10;&#10;&#10;&#10;&#10;&#10;&#10;&#10;&#10;&#10;&#10;&#10;&#10;&#10;&#10;&#10;&#10;&#10;&#10;&#10;&#10;&#10;&#10;&#10;&#10;&#10;&#10;&#10;&#10;&#10;&#10;&#10;&#10;&#10;&#10;&#10;&#10;&#10;&#10;&#10;&#10;&#10;&#10;&#10;&#10;&#10;&#10;&#10;&#10;&#10;&#10;&#10;&#10;&#10;&#10;&#10;&#10;&#10;&#10;&#10;&#10;&#10;&#10;&#10;&#10;&#10;&#10;&#10;&#10;&#10;&#10;&#10;&#10;&#10;&#10;&#10;&#10;&#10;&#10;&#10;&#10;&#10;&#10;&#10;&#10;&#10;&#10;&#10;&#10;&#10;&#10;&#10;&#10;&#10;&#10;&#10;&#10;&#10;&#10;&#10;&#10;&#10;&#10;&#10;&#10;&#10;&#10;&#10;&#10;&#10;&#10;&#10;&#10;&#10;&#10;&#10;<g
   id="g4056"
   transform="matrix(1.3333334,0,0,1.3333334,109.63986,119.96495)"
   style="fill:#800000;fill-opacity:1"><path
     inkscape:connector-curvature="0"
     id="path4054"
     d=""
     style="fill:#800000;stroke:none" /></g></g><g
     id="g10"
     inkscape:groupmode="layer"
     inkscape:label="Grid"
     transform="matrix(1.3333333,0,0,-1.3333333,-571.89993,404.3872)"
     style="display:inline"><g
       id="g14"><g
         id="g16"
         clip-path="url(#clipPath20)"><g
           id="g22"
           transform="translate(460.7484,322.6421)" /></g></g><g
       id="g24"
       transform="translate(460.7484,322.6421)" /><g
       id="g26"><g
         id="g28"
         clip-path="url(#clipPath32)"><g
           id="g34"
           transform="translate(511.845,322.6436)" /></g></g><g
       id="g36"
       transform="translate(511.845,322.6436)" /><g
       id="g38"><g
         id="g40"
         clip-path="url(#clipPath44)"><g
           id="g46"
           transform="translate(751.1232,96.0183)" /></g></g><g
       id="g48"
       transform="translate(751.1232,96.0183)" /><rect
       style="opacity:1;vector-effect:none;fill:none;fill-opacity:1;stroke:#0e0e0e;stroke-width:0.75;stroke-linecap:round;stroke-linejoin:round;stroke-miterlimit:4;stroke-dasharray:none;stroke-dashoffset:7.5;stroke-opacity:1;paint-order:markers stroke fill"
       id="rect858"
       width="36.75"
       height="36.75"
       x="429.29996"
       y="-302.91541"
       transform="scale(1,-1)"
       rx="3.6539953"
       ry="3.6539953" /><g
       id="g1031"
       style="display:inline;fill:#000000;fill-opacity:1"
       transform="matrix(1.4589666,0,0,-1.4589666,231.04828,739.58389)"><g
         id="use1027"
         transform="translate(144.2234,314.46469)"
         style="fill:#000000;fill-opacity:1"><path
           inkscape:connector-curvature="0"
           id="path1590"
           d="m 1.21875,0 h -0.5 C 0.625,0 0.578125,-0.046875 0.578125,-0.140625 v -4.875 c 0,-0.082031 0.046875,-0.125 0.140625,-0.125 h 2.515625 c 0.09375,0 0.140625,0.042969 0.140625,0.125 v 0.421875 c 0,0.085938 -0.046875,0.125 -0.140625,0.125 h -1.78125 c -0.0625,0 -0.09375,0.027344 -0.09375,0.078125 V -2.875 c 0,0.0625 0.03125,0.09375 0.09375,0.09375 H 3 c 0.09375,0 0.140625,0.046875 0.140625,0.140625 V -2.25 C 3.140625,-2.15625 3.09375,-2.109375 3,-2.109375 H 1.453125 c -0.0625,0 -0.09375,0.027344 -0.09375,0.078125 v 1.890625 C 1.359375,-0.046875 1.3125,0 1.21875,0 Z m 0,0"
           style="fill:#000000;fill-opacity:1;stroke:none" /></g><g
         id="use1029"
         transform="translate(148.07941,314.46469)"
         style="fill:#000000;fill-opacity:1"><path
           inkscape:connector-curvature="0"
           id="path1594"
           d="m 1.21875,0 h -0.5 C 0.625,0 0.578125,-0.046875 0.578125,-0.140625 v -4.875 c 0,-0.082031 0.046875,-0.125 0.140625,-0.125 h 0.453125 c 0.082031,0 0.140625,0.027344 0.171875,0.078125 l 1.9375,3.484375 H 3.3125 v -3.4375 c 0,-0.082031 0.046875,-0.125 0.140625,-0.125 H 3.9375 c 0.09375,0 0.140625,0.042969 0.140625,0.125 v 4.875 C 4.078125,-0.046875 4.03125,0 3.9375,0 H 3.515625 C 3.429688,0 3.359375,-0.0390625 3.296875,-0.125 l -1.90625,-3.4375 h -0.03125 v 3.421875 C 1.359375,-0.046875 1.3125,0 1.21875,0 Z m 0,0"
           style="fill:#000000;fill-opacity:1;stroke:none" /></g></g></g></svg>
